<?xml version="1.0" encoding="UTF-8" standalone="no"?>
<!-- Created with Inkscape (http://www.inkscape.org/) -->

<svg
   xmlns:dc="http://purl.org/dc/elements/1.1/"
   xmlns:cc="http://creativecommons.org/ns#"
   xmlns:rdf="http://www.w3.org/1999/02/22-rdf-syntax-ns#"
   xmlns:svg="http://www.w3.org/2000/svg"
   xmlns="http://www.w3.org/2000/svg"
   xmlns:sodipodi="http://sodipodi.sourceforge.net/DTD/sodipodi-0.dtd"
   xmlns:inkscape="http://www.inkscape.org/namespaces/inkscape"
   width="21.449991mm"
   height="21.449991mm"
   viewBox="0 0 76.003901 76.003904"
   id="svg2"
   version="1.1"
   inkscape:version="0.91 r13725"
   sodipodi:docname="logo-encargapp.svg">
  <defs
     id="defs4" />
  <sodipodi:namedview
     id="base"
     pagecolor="#ffffff"
     bordercolor="#666666"
     borderopacity="1.0"
     inkscape:pageopacity="0.0"
     inkscape:pageshadow="2"
     inkscape:zoom="0.73374997"
     inkscape:cx="33.943347"
     inkscape:cy="-14.193604"
     inkscape:document-units="px"
     inkscape:current-layer="layer1"
     showgrid="false"
     fit-margin-top="0"
     fit-margin-left="0"
     fit-margin-right="0"
     fit-margin-bottom="0"
     inkscape:window-width="1366"
     inkscape:window-height="705"
     inkscape:window-x="1280"
     inkscape:window-y="166"
     inkscape:window-maximized="1"
     showguides="true"
     inkscape:guide-bbox="true"
     inkscape:snap-global="false" />
  <metadata
     id="metadata7">
    <rdf:RDF>
      <cc:Work
         rdf:about="">
        <dc:format>image/svg+xml</dc:format>
        <dc:type
           rdf:resource="http://purl.org/dc/dcmitype/StillImage" />
        <dc:title></dc:title>
      </cc:Work>
    </rdf:RDF>
  </metadata>
  <g
     inkscape:label="Capa 1"
     inkscape:groupmode="layer"
     id="layer1"
     transform="translate(-134.14732,-492.21738)">
    <path
       style="color:#000000;font-style:normal;font-variant:normal;font-weight:normal;font-stretch:normal;font-size:medium;line-height:normal;font-family:sans-serif;text-indent:0;text-align:start;text-decoration:none;text-decoration-line:none;text-decoration-style:solid;text-decoration-color:#000000;letter-spacing:normal;word-spacing:normal;text-transform:none;direction:ltr;block-progression:tb;writing-mode:lr-tb;baseline-shift:baseline;text-anchor:start;white-space:normal;clip-rule:nonzero;display:inline;overflow:visible;visibility:visible;opacity:1;isolation:auto;mix-blend-mode:normal;color-interpolation:sRGB;color-interpolation-filters:linearRGB;solid-color:#000000;solid-opacity:1;fill:#ffffff;fill-opacity:1;fill-rule:nonzero;stroke:none;stroke-width:2.5;stroke-linecap:round;stroke-linejoin:round;stroke-miterlimit:4;stroke-dasharray:none;stroke-dashoffset:0;stroke-opacity:1;color-rendering:auto;image-rendering:auto;shape-rendering:auto;text-rendering:auto;enable-background:accumulate"
       d="M 50.720703,11.998047 C 29.747673,11.998047 12.71875,29.02697 12.71875,50 c 0,0.748297 0.02755,1.488901 0.07031,2.226562 a 1.250125,1.250125 0 0 0 0.03516,0.464844 c 1.384576,19.717385 17.82963,35.310547 37.896484,35.310547 20.97303,0 38.001953,-17.028923 38.001953,-38.001953 0,-20.97303 -17.028923,-38.001953 -38.001953,-38.001953 z m 0,2.5 c 12.73155,0 23.881259,6.688914 30.146485,16.744141 C 60.068706,38.134858 44.933568,55.844334 41.101562,77.052734 37.554845,64.778897 27.88555,54.948219 15.253906,51.404297 15.235772,50.937746 15.21875,50.471031 15.21875,50 c 0,-19.62193 15.880023,-35.501953 35.501953,-35.501953 z M 82.136719,33.457031 C 84.74061,38.396619 86.222656,44.022921 86.222656,50 c 0,19.62193 -15.880023,35.501953 -35.501953,35.501953 -2.746738,0 -5.417578,-0.321105 -7.984375,-0.910156 C 43.995059,61.023401 59.667313,40.682172 82.136719,33.457031 Z M 15.455078,54.068359 C 28.817355,58.193627 38.435753,69.902189 39.884766,83.814453 26.814934,79.636164 17.05414,68.101824 15.455078,54.068359 Z"
       transform="translate(121.42857,480.21933)"
       id="path4138"
       inkscape:connector-curvature="0" />
  </g>
</svg>
